<svg xmlns="http://www.w3.org/2000/svg" width="30" height="27" viewBox="0 0 30 27" fill="none">
<path fill-rule="evenodd" clip-rule="evenodd" d="M29 1.5C29 1.77614 28.7761 2 28.5 2H1.5C1.22386 2 1 1.77614 1 1.5C1 1.22386 1.22386 1 1.5 1H28.5C28.7761 1 29 1.22386 29 1.5ZM29 13.0222C29 13.2984 28.7761 13.5222 28.5 13.5222H1.5C1.22386 13.5222 1 13.2984 1 13.0222C1 12.7461 1.22386 12.5222 1.5 12.5222H28.5C28.7761 12.5222 29 12.7461 29 13.0222ZM1 24.5445C1 24.8206 1.22386 25.0445 1.5 25.0445H28.5C28.7761 25.0445 29 24.8206 29 24.5445C29 24.2683 28.7761 24.0445 28.5 24.0445H1.5C1.22386 24.0445 1 24.2683 1 24.5445Z" fill="#333333"/>
<path d="M1.5 3H28.5V1H1.5V3ZM28.5 0H1.5V2H28.5V0ZM1.5 14.5222H28.5V12.5222H1.5V14.5222ZM28.5 11.5222H1.5V13.5222H28.5V11.5222ZM28.5 24.0445H1.5V26.0445H28.5V24.0445ZM1.5 25.0445H28.5V23.0445H1.5V25.0445ZM1.5 23.0445C0.671573 23.0445 0 23.7161 0 24.5445H2C2 24.8206 1.77614 25.0445 1.5 25.0445V23.0445ZM30 24.5445C30 23.7161 29.3284 23.0445 28.5 23.0445V25.0445C28.2239 25.0445 28 24.8206 28 24.5445H30ZM1.5 24.0445C1.77614 24.0445 2 24.2683 2 24.5445H0C0 25.3729 0.671572 26.0445 1.5 26.0445V24.0445ZM28.5 26.0445C29.3284 26.0445 30 25.3729 30 24.5445H28C28 24.2683 28.2239 24.0445 28.5 24.0445V26.0445ZM28.5 13.5222C28.2239 13.5222 28 13.2984 28 13.0222H30C30 12.1938 29.3284 11.5222 28.5 11.5222V13.5222ZM2 13.0222C2 13.2984 1.77614 13.5222 1.5 13.5222V11.5222C0.671572 11.5222 0 12.1938 0 13.0222H2ZM28.5 14.5222C29.3284 14.5222 30 13.8506 30 13.0222H28C28 12.7461 28.2239 12.5222 28.5 12.5222V14.5222ZM1.5 12.5222C1.77614 12.5222 2 12.7461 2 13.0222H0C0 13.8506 0.671573 14.5222 1.5 14.5222V12.5222ZM28.5 2C28.2239 2 28 1.77614 28 1.5H30C30 0.671573 29.3284 0 28.5 0V2ZM2 1.5C2 1.77614 1.77614 2 1.5 2V0C0.671572 0 0 0.671574 0 1.5H2ZM28.5 3C29.3284 3 30 2.32843 30 1.5H28C28 1.22386 28.2239 1 28.5 1V3ZM1.5 1C1.77614 1 2 1.22386 2 1.5H0C0 2.32843 0.671573 3 1.5 3V1Z" fill="#333333"/>
</svg>